<?xml version="1.0" standalone="no"?><!DOCTYPE svg PUBLIC "-//W3C//DTD SVG 1.1//EN" "http://www.w3.org/Graphics/SVG/1.1/DTD/svg11.dtd"><svg t="1781616170089" class="icon" viewBox="0 0 1152 1024" version="1.1" xmlns="http://www.w3.org/2000/svg" p-id="2816" xmlns:xlink="http://www.w3.org/1999/xlink" width="225" height="200"><path d="M569.464889 630.293333c-1.301333 2.552889-1.806222 3.470222-3.072 5.12-0.782222 1.016889-0.782222 1.016889-2.709333 2.936889-1.464889 1.28-1.464889 1.28-4.430223 3.072-4.394667 2.104889-4.394667 2.104889-13.297777 2.133334-10.161778-3.704889-10.161778-3.704889-15.132445-10.552889-2.311111-5.354667-2.311111-5.354667-2.666667-8.384-0.092444-3.982222-0.092444-3.982222 0.177778-5.596445 0.725333-3.185778 0.725333-3.185778 1.002667-3.911111 0.334222-0.903111 0.334222-0.903111 0.448-1.173333a21.404444 21.404444 0 0 1 2.296889-4.266667c1.500444-3.008 4.138667-8.490667 8.078222-16.810667l5.781333-12.209777h13.504c24.32 0 33.024-5.496889 33.024-33.173334 0-27.996444-15.921778-38.627556-38.158222-38.627555-16.938667 0-34.289778 10.88-40.974222 33.642666l-3.84 13.084445-13.496889 2.005333c-41.514667 6.158222-52.664889 13.553778-65.180444 40.732445-14.883556 32.312889-9.102222 95.466667 15.324444 117.539555 35.84 32.384 77.866667 45.155556 140.003556 37.226667 44.686222-5.703111 88.533333-28.636444 131.733333-69.475556a21.333333 21.333333 0 1 1 29.312 31.004445c-49.393778 46.698667-101.333333 73.863111-155.640889 80.796444-74.353778 9.493333-128.832-7.075556-174.008889-47.893333-39.893333-36.046222-47.502222-119.210667-25.479111-167.047111 17.457778-37.902222 38.961778-54.257778 85.112889-62.983111 15.182222-33.905778 46.236444-51.299556 77.134222-51.299556 43.022222 0 80.824889 25.230222 80.824889 81.294222 0 30.549333-10.581333 52.501333-30.144 64.853334-9.955556 6.286222-20.024889 9.258667-31.808 10.396444-1.656889 3.441778-2.88 5.923556-3.719111 7.566222z m-11.946667-28.216889a21.333333 21.333333 0 0 1 12.231111 26.773334c0.099556-0.348444 0.248889-1.009778 0.696889-2.965334 0.263111-1.564444 0.263111-1.564444 0.163556-5.525333-0.355556-3.015111-0.355556-3.015111-2.652445-8.362667-4.977778-6.840889-4.977778-6.840889-15.125333-10.545777-8.888889 0.028444-8.888889 0.028444-13.283556 2.133333-2.951111 1.777778-2.951111 1.777778-4.408888 3.050667-1.898667 1.891556-1.898667 1.891556-2.631112 2.858666a14.72 14.72 0 0 0-1.379555 2.055111 54.727111 54.727111 0 0 0 0.952889-1.877333 21.340444 21.340444 0 0 1 25.443555-7.594667z" fill="#49484D" p-id="2817"></path><path d="M722.993778 529.720889c27.313778 2.062222 25.784889 42.609778-1.607111 42.609778-5.418667 0-10.737778-0.156444-15.943111-0.455111-41.002667 0.817778-85.902222 17.976889-134.805334 52.181333a21.333333 21.333333 0 0 1-24.455111-34.965333c24.832-17.365333 49.166222-31.004444 72.981333-40.860445-57.671111-33.294222-80.369778-98.951111-50.190222-183.374222 4.408889-12.330667 3.534222-22.805333-3.164444-54.542222-3.847111-18.261333-5.596444-28.657778-6.371556-41.194667 0 0-0.327111-5.105778-0.426666-6.840889-2.652444-44.188444 1.173333-81.934222 19.022222-121.713778 28.494222-63.473778 86.968889-108.878222 180.778666-128.832 201.635556-42.894222 352.476444 51.619556 384.711112 227.747556 12.124444 84.536889 0.789333 148.764444-32.568889 201.208889-26.453333 41.6-61.098667 71.118222-125.134223 113.208889-1.799111 1.180444-3.271111 2.154667-4.835555 3.171555 46.172444 77.902222 28.408889 174.599111-40.32 264.32-68.977778 90.055111-180.721778 161.216-293.425778 184.298667-207.445333 42.488889-361.955556-8.440889-422.144-118.954667-27.619556-50.709333-41.059556-93.504-37.304889-137.614222-41.656889 22.968889-87.566222 15.729778-138.375111-23.68C1.28 688.085333-9.671111 625.201778 10.595556 563.911111c19.320889-58.439111 62.293333-99.797333 103.025777-80.881778 35.946667 16.696889 46.705778 39.374222 39.068445 75.2 6.144-9.706667 13.624889-21.532444 17.379555-26.830222 35.015111-49.472 80.021333-73.514667 149.504-64.192 61.667556 8.277333 101.290667 41.528889 121.073778 89.472a21.333333 21.333333 0 1 1-39.445333 16.270222c-14.208-34.446222-41.443556-57.301333-87.303111-63.452444-52.295111-7.018667-82.517333 9.130667-109.006223 46.549333-5.304889 7.502222-22.741333 35.825778-26.858666 41.528889-12.337778 17.080889-30.734222 26.183111-48.248889 22.087111-20.657778-4.828444-30.528-25.066667-25.713778-47.381333 12.942222-35.740444 11.776-41.173333-8.426667-50.56-3.057778-1.422222-8.832 0.455111-17.109333 8.419555-10.801778 10.396444-20.956444 27.562667-27.434667 47.168-15.111111 45.696-7.459556 89.635556 24.476445 114.417778 57.400889 44.515556 96.184889 35.569778 140.295111-29.162666 15.132444-22.208 49.024-1.827556 36.508444 21.952-34.019556 64.625778-28.124444 111.445333 10.197334 181.809777 50.104889 92.003556 185.436444 136.611556 376.106666 97.564445 102.520889-20.999111 205.326222-86.471111 268.117334-168.448 63.857778-83.370667 75.662222-168.248889 27.427555-231.516445a21.333333 21.333333 0 0 1 5.354667-30.833777c14.350222-9.315556 16.782222-10.894222 22.805333-14.855112 59.328-38.997333 90.232889-65.329778 112.568889-100.451555 27.512889-43.242667 37.048889-97.116444 26.531556-171.036445-27.946667-151.623111-155.278222-231.267556-333.795556-193.294222-80.775111 17.187556-127.936 53.802667-150.727111 104.576-14.435556 32.163556-17.635556 63.765333-15.36 101.688889 0.092444 1.635556 0.419556 6.663111 0.426667 6.748445 0.611556 9.884444 2.090667 18.702222 5.532444 35.029333 8.391111 39.800889 9.671111 55.111111 1.592889 77.710222-31.943111 89.365333 8.32 144.384 96.888889 149.973333 5.688889-0.071111 11.335111 0.113778 16.952889 0.533334zM395.555556 702.961778a21.333333 21.333333 0 1 1 40.32 13.937778c-8.426667 24.391111-18.773333 41.628444-33.671112 50.254222a21.333333 21.333333 0 0 1-21.376-36.920889c3.498667-2.026667 9.400889-11.875556 14.72-27.271111z" fill="#49484D" p-id="2818"></path><path d="M163.271111 120.576a21.333333 21.333333 0 0 1 26.346667-33.564444c49.777778 39.075556 106.766222 71.125333 171.050666 96.149333 102.136889 39.751111 139.875556 142.250667 96.071112 219.221333-36.835556 64.732444-46.165333 113.685333-22.741334 144.263111a21.333333 21.333333 0 1 1-33.870222 25.948445c-37.297778-48.682667-25.031111-113.009778 19.534222-191.310222 30.805333-54.136889 3.619556-127.964444-74.467555-158.364445-68.117333-26.510222-128.782222-60.622222-181.923556-102.343111zM846.499556 353.635556a21.333333 21.333333 0 0 1-1.372445-42.645334c41.408-1.336889 66.858667 20.572444 66.858667 59.911111 0 39.608889-25.848889 61.134222-67.456 58.638223a21.333333 21.333333 0 0 1 2.56-42.595556c18.190222 1.095111 22.229333-2.275556 22.229333-16.042667 0-14.037333-4.444444-17.856-22.819555-17.265777z" fill="#49484D" p-id="2819"></path></svg>